<svg xmlns="http://www.w3.org/2000/svg" xmlns:xlink="http://www.w3.org/1999/xlink" width="500" zoomAndPan="magnify" viewBox="0 0 375 374.999991" height="500" preserveAspectRatio="xMidYMid meet" version="1.0"><defs><g/><clipPath id="7107b7bf85"><path d="M 70 183 L 114 183 L 114 242 L 70 242 Z M 70 183 " clip-rule="nonzero"/></clipPath><clipPath id="6c11a49f7d"><path d="M 57.496094 188.78125 L 99.910156 176.171875 L 118.722656 239.433594 L 76.308594 252.042969 Z M 57.496094 188.78125 " clip-rule="nonzero"/></clipPath><clipPath id="00eacf3b26"><path d="M 99.597656 176.261719 L 57.179688 188.875 L 75.992188 252.136719 L 118.40625 239.527344 Z M 99.597656 176.261719 " clip-rule="nonzero"/></clipPath></defs><g fill="#ffffff" fill-opacity="1"><g transform="translate(100.181174, 213.61424)"><g><path d="M 22.3125 -27.828125 L 22.3125 -23.203125 L 14.28125 -23.203125 L 14.28125 0 L 8.796875 0 L 8.796875 -23.203125 L 0.765625 -23.203125 L 0.765625 -27.828125 Z M 22.3125 -27.828125 "/></g></g></g><g fill="#ffffff" fill-opacity="1"><g transform="translate(123.24738, 213.61424)"><g><path d="M 8.1875 0.40625 C 6.84375 0.40625 5.675781 0.160156 4.6875 -0.328125 C 3.695312 -0.828125 2.929688 -1.554688 2.390625 -2.515625 C 1.859375 -3.472656 1.59375 -4.628906 1.59375 -5.984375 C 1.59375 -7.222656 1.859375 -8.265625 2.390625 -9.109375 C 2.929688 -9.953125 3.757812 -10.644531 4.875 -11.1875 C 5.988281 -11.726562 7.445312 -12.144531 9.25 -12.4375 C 10.507812 -12.632812 11.460938 -12.851562 12.109375 -13.09375 C 12.765625 -13.332031 13.207031 -13.601562 13.4375 -13.90625 C 13.664062 -14.21875 13.78125 -14.609375 13.78125 -15.078125 C 13.78125 -15.742188 13.546875 -16.253906 13.078125 -16.609375 C 12.609375 -16.972656 11.828125 -17.15625 10.734375 -17.15625 C 9.566406 -17.15625 8.457031 -16.894531 7.40625 -16.375 C 6.351562 -15.851562 5.4375 -15.164062 4.65625 -14.3125 L 4.28125 -14.3125 L 2.078125 -17.640625 C 3.140625 -18.828125 4.4375 -19.75 5.96875 -20.40625 C 7.507812 -21.0625 9.1875 -21.390625 11 -21.390625 C 13.78125 -21.390625 15.789062 -20.800781 17.03125 -19.625 C 18.28125 -18.445312 18.90625 -16.769531 18.90625 -14.59375 L 18.90625 -5.484375 C 18.90625 -4.546875 19.316406 -4.078125 20.140625 -4.078125 C 20.453125 -4.078125 20.765625 -4.132812 21.078125 -4.25 L 21.34375 -4.171875 L 21.71875 -0.5 C 21.425781 -0.300781 21.019531 -0.140625 20.5 -0.015625 C 19.976562 0.0976562 19.40625 0.15625 18.78125 0.15625 C 17.53125 0.15625 16.550781 -0.0820312 15.84375 -0.5625 C 15.144531 -1.050781 14.640625 -1.8125 14.328125 -2.84375 L 13.9375 -2.875 C 12.90625 -0.6875 10.988281 0.40625 8.1875 0.40625 Z M 9.859375 -3.546875 C 11.078125 -3.546875 12.050781 -3.953125 12.78125 -4.765625 C 13.507812 -5.585938 13.875 -6.726562 13.875 -8.1875 L 13.875 -10.3125 L 13.515625 -10.390625 C 13.203125 -10.140625 12.785156 -9.925781 12.265625 -9.75 C 11.753906 -9.582031 11.015625 -9.414062 10.046875 -9.25 C 8.910156 -9.0625 8.085938 -8.734375 7.578125 -8.265625 C 7.078125 -7.804688 6.828125 -7.148438 6.828125 -6.296875 C 6.828125 -5.398438 7.09375 -4.71875 7.625 -4.25 C 8.164062 -3.78125 8.910156 -3.546875 9.859375 -3.546875 Z M 9.859375 -3.546875 "/></g></g></g><g fill="#ffffff" fill-opacity="1"><g transform="translate(145.381042, 213.61424)"><g><path d="M 9.828125 0.40625 C 8.390625 0.40625 7.070312 0.238281 5.875 -0.09375 C 4.6875 -0.4375 3.671875 -0.898438 2.828125 -1.484375 C 1.984375 -2.078125 1.359375 -2.753906 0.953125 -3.515625 L 3.890625 -6.6875 L 4.28125 -6.6875 C 4.976562 -5.738281 5.800781 -5.03125 6.75 -4.5625 C 7.707031 -4.09375 8.742188 -3.859375 9.859375 -3.859375 C 10.890625 -3.859375 11.664062 -4.039062 12.1875 -4.40625 C 12.707031 -4.78125 12.96875 -5.3125 12.96875 -6 C 12.96875 -6.53125 12.78125 -6.972656 12.40625 -7.328125 C 12.03125 -7.691406 11.421875 -7.976562 10.578125 -8.1875 L 7.796875 -8.84375 C 5.722656 -9.34375 4.207031 -10.101562 3.25 -11.125 C 2.289062 -12.144531 1.8125 -13.441406 1.8125 -15.015625 C 1.8125 -16.328125 2.144531 -17.460938 2.8125 -18.421875 C 3.476562 -19.390625 4.414062 -20.125 5.625 -20.625 C 6.832031 -21.132812 8.242188 -21.390625 9.859375 -21.390625 C 11.753906 -21.390625 13.320312 -21.117188 14.5625 -20.578125 C 15.800781 -20.035156 16.769531 -19.304688 17.46875 -18.390625 L 14.65625 -15.34375 L 14.28125 -15.34375 C 13.695312 -16 13.039062 -16.476562 12.3125 -16.78125 C 11.582031 -17.09375 10.765625 -17.25 9.859375 -17.25 C 7.773438 -17.25 6.734375 -16.597656 6.734375 -15.296875 C 6.734375 -14.753906 6.925781 -14.3125 7.3125 -13.96875 C 7.707031 -13.625 8.390625 -13.347656 9.359375 -13.140625 L 11.953125 -12.5625 C 14.085938 -12.101562 15.644531 -11.367188 16.625 -10.359375 C 17.613281 -9.347656 18.109375 -7.992188 18.109375 -6.296875 C 18.109375 -4.960938 17.773438 -3.785156 17.109375 -2.765625 C 16.453125 -1.753906 15.5 -0.972656 14.25 -0.421875 C 13.007812 0.128906 11.535156 0.40625 9.828125 0.40625 Z M 9.828125 0.40625 "/></g></g></g><g fill="#ffffff" fill-opacity="1"><g transform="translate(164.736101, 213.61424)"><g><path d="M 3.03125 0 L 3.03125 -29.421875 L 8.296875 -29.421875 L 8.296875 -13.09375 L 8.8125 -13.09375 L 14.890625 -21 L 20.234375 -21 L 20.234375 -20.5625 L 13.09375 -11.34375 L 21.03125 -0.46875 L 21.03125 0 L 15.46875 0 L 8.8125 -8.84375 L 8.296875 -8.84375 L 8.296875 0 Z M 3.03125 0 "/></g></g></g><g fill="#0ca798" fill-opacity="1"><g transform="translate(185.810074, 213.61424)"><g><path d="M 8.953125 0 L 3.609375 0 L 3.609375 -27.828125 L 9.921875 -27.828125 L 21.09375 -9.890625 L 21.59375 -9.96875 L 21.59375 -27.828125 L 26.875 -27.828125 L 26.875 0 L 21.25 0 L 9.421875 -19.15625 L 8.953125 -19.078125 Z M 8.953125 0 "/></g></g></g><g fill="#0ca798" fill-opacity="1"><g transform="translate(216.317606, 213.61424)"><g><path d="M 20.75 -9.3125 L 7.25 -9.3125 C 7.40625 -7.476562 7.925781 -6.144531 8.8125 -5.3125 C 9.695312 -4.488281 10.910156 -4.078125 12.453125 -4.078125 C 13.648438 -4.078125 14.625 -4.300781 15.375 -4.75 C 16.125 -5.195312 16.726562 -5.878906 17.1875 -6.796875 L 17.59375 -6.796875 L 21.09375 -4.546875 C 20.40625 -3.078125 19.367188 -1.882812 17.984375 -0.96875 C 16.597656 -0.0507812 14.753906 0.40625 12.453125 0.40625 C 10.273438 0.40625 8.394531 -0.00390625 6.8125 -0.828125 C 5.238281 -1.660156 4.023438 -2.890625 3.171875 -4.515625 C 2.316406 -6.148438 1.890625 -8.140625 1.890625 -10.484375 C 1.890625 -12.867188 2.335938 -14.878906 3.234375 -16.515625 C 4.140625 -18.160156 5.359375 -19.382812 6.890625 -20.1875 C 8.421875 -20.988281 10.144531 -21.390625 12.0625 -21.390625 C 15.03125 -21.390625 17.304688 -20.601562 18.890625 -19.03125 C 20.472656 -17.457031 21.265625 -15.148438 21.265625 -12.109375 C 21.265625 -11.003906 21.222656 -10.144531 21.140625 -9.53125 Z M 16.21875 -12.71875 C 16.164062 -14.3125 15.789062 -15.472656 15.09375 -16.203125 C 14.40625 -16.929688 13.394531 -17.296875 12.0625 -17.296875 C 9.40625 -17.296875 7.835938 -15.769531 7.359375 -12.71875 Z M 16.21875 -12.71875 "/></g></g></g><g fill="#0ca798" fill-opacity="1"><g transform="translate(239.136403, 213.61424)"><g><path d="M 9.828125 0.40625 C 8.390625 0.40625 7.070312 0.238281 5.875 -0.09375 C 4.6875 -0.4375 3.671875 -0.898438 2.828125 -1.484375 C 1.984375 -2.078125 1.359375 -2.753906 0.953125 -3.515625 L 3.890625 -6.6875 L 4.28125 -6.6875 C 4.976562 -5.738281 5.800781 -5.03125 6.75 -4.5625 C 7.707031 -4.09375 8.742188 -3.859375 9.859375 -3.859375 C 10.890625 -3.859375 11.664062 -4.039062 12.1875 -4.40625 C 12.707031 -4.78125 12.96875 -5.3125 12.96875 -6 C 12.96875 -6.53125 12.78125 -6.972656 12.40625 -7.328125 C 12.03125 -7.691406 11.421875 -7.976562 10.578125 -8.1875 L 7.796875 -8.84375 C 5.722656 -9.34375 4.207031 -10.101562 3.25 -11.125 C 2.289062 -12.144531 1.8125 -13.441406 1.8125 -15.015625 C 1.8125 -16.328125 2.144531 -17.460938 2.8125 -18.421875 C 3.476562 -19.390625 4.414062 -20.125 5.625 -20.625 C 6.832031 -21.132812 8.242188 -21.390625 9.859375 -21.390625 C 11.753906 -21.390625 13.320312 -21.117188 14.5625 -20.578125 C 15.800781 -20.035156 16.769531 -19.304688 17.46875 -18.390625 L 14.65625 -15.34375 L 14.28125 -15.34375 C 13.695312 -16 13.039062 -16.476562 12.3125 -16.78125 C 11.582031 -17.09375 10.765625 -17.25 9.859375 -17.25 C 7.773438 -17.25 6.734375 -16.597656 6.734375 -15.296875 C 6.734375 -14.753906 6.925781 -14.3125 7.3125 -13.96875 C 7.707031 -13.625 8.390625 -13.347656 9.359375 -13.140625 L 11.953125 -12.5625 C 14.085938 -12.101562 15.644531 -11.367188 16.625 -10.359375 C 17.613281 -9.347656 18.109375 -7.992188 18.109375 -6.296875 C 18.109375 -4.960938 17.773438 -3.785156 17.109375 -2.765625 C 16.453125 -1.753906 15.5 -0.972656 14.25 -0.421875 C 13.007812 0.128906 11.535156 0.40625 9.828125 0.40625 Z M 9.828125 0.40625 "/></g></g></g><g fill="#0ca798" fill-opacity="1"><g transform="translate(258.491462, 213.61424)"><g><path d="M 14.484375 -5 L 15.859375 -1.109375 C 15.285156 -0.640625 14.566406 -0.269531 13.703125 0 C 12.835938 0.269531 11.863281 0.40625 10.78125 0.40625 C 8.5 0.40625 6.769531 -0.210938 5.59375 -1.453125 C 4.414062 -2.691406 3.828125 -4.492188 3.828125 -6.859375 L 3.828125 -16.828125 L 0.625 -16.828125 L 0.625 -21.015625 L 3.828125 -21.015625 L 3.828125 -25.109375 L 9.09375 -25.96875 L 9.09375 -21.015625 L 15.0625 -21.015625 L 15.0625 -16.828125 L 9.09375 -16.828125 L 9.09375 -7.234375 C 9.09375 -6.191406 9.304688 -5.429688 9.734375 -4.953125 C 10.171875 -4.484375 10.800781 -4.25 11.625 -4.25 C 12.570312 -4.25 13.394531 -4.5 14.09375 -5 Z M 14.484375 -5 "/></g></g></g><g clip-path="url(#7107b7bf85)"><g clip-path="url(#6c11a49f7d)"><g clip-path="url(#00eacf3b26)"><path fill="#0ca798" d="M 107.691406 226.820312 C 107.691406 226.820312 106.214844 219.863281 102.191406 217.519531 C 98.171875 215.175781 87.738281 210.023438 85.203125 204.019531 C 85.203125 204.019531 84.375 208.449219 86.179688 210.914062 C 86.179688 210.914062 82.648438 208.425781 81.570312 203.707031 C 81.570312 203.707031 74.761719 194.148438 76.222656 183.207031 C 76.222656 183.207031 62.132812 204.339844 78.734375 219.777344 C 78.734375 219.777344 73.765625 218.574219 70.75 215.289062 C 70.75 215.289062 77.652344 226.960938 91.773438 229.730469 C 91.773438 229.730469 87.5625 230.179688 84.375 229.199219 C 84.375 229.199219 92.058594 233.9375 102.46875 232.878906 C 112.878906 231.820312 113.023438 241.324219 113.023438 241.324219 C 113.023438 241.324219 116.476562 233.109375 107.203125 229.328125 C 97.925781 225.542969 84.113281 222.359375 79.269531 213.289062 C 79.269531 213.289062 84.140625 219.566406 93.503906 222.570312 C 102.871094 225.574219 107.691406 226.820312 107.691406 226.820312 " fill-opacity="1" fill-rule="evenodd"/></g></g></g></svg>